<svg xmlns="http://www.w3.org/2000/svg" width="1024" height="1024" viewBox="0 0 1024 1024"><path fill="#3a53ef" d="M635.115 239.202c19.12-.413 44.735 6.352 61.37 15.723 43.705 24.624 69.375 72.149 74.315 120.882a165.7 165.7 0 0 1-36.585 121.564c-22.56 27.369-53.445 43.199-88.62 46.519-76.72 2.185-128.27-63.144-137.045-134.075a165.66 165.66 0 0 1 34.32-121.09c23.965-30.538 54.345-45.039 92.245-49.523m6.385 295.663c8.175-3.44 13.14-12.03 16.08-20.075 20.175-55.275 22.47-116.076 16.34-174.12-1.825-17.278-9.91-97.436-36.18-92.496-8.775 3.746-13.075 13.267-16.45 21.627-24.295 60.21-25.66 189.834-.065 249.449 2.55 5.945 6.23 12.935 12.63 15.355 2.435.92 5.135.66 7.645.26"/><path fill="#3a53ef" d="M390.519 323.072c-10.02 23.832-42.033 50.594-67.045 56.515-30.492 7.219-58.296-8.7-64.965-39.92-10.649-49.844 39.944-85.817 82.49-95.381 40.94-9.202 84.526-6.691 121.15 14.764 32.985 19.248 52.721 67.577 30.289 101.358-27.688 41.025-86.328 49.543-130.93 59.77-36.067 8.27-63.27 16.676-84.209 49.536-3.275 6.067-6.675 13.724-8.032 20.5 3.965-6.639 7.115-11.118 11.011-17.282 24.236-27.302 58.208-34.576 93.456-31.064 14.326 1.428 28.523 3.76 42.889 4.122 26.55.666 57.314-6.851 70.108-32.565 2.392-4.752 3.584-13.497 6.094-15.932l.83.178c2.102 3.423 3.551 21.28 4.145 26.132 3.525 28.824 6.4 57.894-5.873 85.237-16.543 36.86-58.205 40.94-93.294 32.865-17.382-4.04-33.501-11.585-50.944-15.375-27.593-5.985-58.253-7.865-80.453 12.735-6.62 6.14-9.245 11.48-13.493 19.28.084-62.94 16.269-108.759 68.767-146.997 17.809-12.971 35.397-27.163 51.992-41.604 31.007-26.982 50.147-77.221 19.156-111.381-10-11.062-27.997-16.349-41.628-7.88-29.391 18.26-29.691 85.445 13.573 84.6 10.983-.237 17.561-4.591 24.916-12.211"/><path fill="#0305ca" d="M162.007 544.39c26-17.6 56.635-14.2 74.694 12.615 6.712 9.97 9.403 18.38 12.406 29.81 19.107.035 40.989-.56 59.783.07-5.07 3.625-9.708 6.67-15.211 11.135-15.033 12.2-36.211 47.865-25.283 66.84 7.285 12.645 32.505 3.365 40.36-4.75 8.994-7.46 18.937-19.635 20.087-31.685 1.351-14.15-6.045-29.825-13.948-41.1 16.989-.77 36.724-.355 53.83-.315-19.836 14.495-31.939 29.05-35.899 54.005-2.942 18.55 2.203 35.91 13.295 50.93 6.579 8.91 12.317 11.905 20 18.71-14.82.69-32.251-.12-47.358-.035.296-10.94.972-23.425 2.711-34.25 2.25-10.29 5.42-23.365 6.817-33.64-3.269 5.54-7.62 19.435-9.755 26.005-5.387 14.725-10.75 32.03-26 39.315-12.687 6.065-22.22.51-31.423-7.725.437 13.86-.168 15.965-2.443 29.19 17.12 3.695 37.995 4.655 54.258-2.595 5.737-2.555 10.011-5.59 15.134-8.085-2.717 11.255-5.15 21.24-10.545 31.61-19.49 37.465-48.06 43.825-80.467 17.75a107.5 107.5 0 0 1-52.642 16.955c-24.035 1.18-45.133-6.285-62.92-22.68a85.57 85.57 0 0 1-27.943-60.31c-1.076-32.14 12.061-51.12 32.818-73.38 2.064-33 9.313-60.59 34.351-83.565zm96.318 107.26c5.774-16.035 9.567-26.425 3.997-43.71-1.474-4.575-7.995-16.51-11.845-18.365l-.547.375c-.296 3.425 2.602 16.16 2.796 21.595.377 10.65.397 19.575-.319 30.295 1.708 2.955 3.976 7.15 5.917 9.81m-12.374-18.185c1.031-2.345 1.226-5.695 1.263-8.235.474-32.17-30.725-53.515-60.69-53.545-31.45-.03-52.12 17.24-52.536 49.185 5.773-3.015 11.785-6.955 17.815-9.24 33.434-12.69 69.898-4.24 94.148 21.835"/><path fill="#f94313" d="M126.363 628.78c1.776 22.385 4.92 42.07 22.98 57.58a75.6 75.6 0 0 0 14.183 9.48c-4.445 5.145-9.575 10.845-13.756 16.12 26.634.185 36.437 4.93 55.348 23.805l20.15 20.3c2.059 2.09 10.122 10.8 11.782 12.13a107.5 107.5 0 0 1-52.642 16.955c-24.035 1.18-45.133-6.285-62.92-22.68a85.57 85.57 0 0 1-27.943-60.31c-1.076-32.14 12.061-51.12 32.818-73.38"/><path fill="#f94313" d="M252.408 641.84c1.707 2.955 3.975 7.15 5.917 9.81-2.698 12.12-5.826 27.215-2.007 39.335.844 2.675 3.352 6.905 4.796 9.34.436 13.86-.17 15.965-2.444 29.19-22.565-5.28-40.296-15.745-62.204-21.95-5.858-1.66-15.268-1.39-21.492-1.155 14.699-6.04 29.826-1.8 45.301-12.395 20.08-13.755 26.841-29.325 32.132-52.175"/><path fill="#f94313" d="M133.989 620.87c5.772-3.015 11.784-6.955 17.814-9.24 33.434-12.69 69.898-4.24 94.148 21.835-16.071 36.085-62.86 41.17-93.464 20.415-12.991-8.81-16.05-18.21-18.499-33.01"/><path fill="#0305ca" d="M703.025 586.855c17.015.305 34.035.2 51.045-.32-13.14 17.445-17.41 25.355-22.57 46.915-1.965 9.1-2.975 14.22-2.405 23.425 1.73-5.955 2.92-12.035 4.56-18.015 7.12-23.13 24.21-51.615 51.575-52.055 5.315-.085 14.17 2.1 17.505 6.355 12.185 15.675.59 35.595-5.25 51.39-7.96 21.515-2.23 50.87 14.39 66.96 22.915 22.175 64.085 25.92 92.24 12.16 8.11-3.965 13.325-8.685 19.55-15.02-8.77 29.595-34.16 76.84-68.275 76.215-44.725-.815-97.72-62.7-77.065-107.615 4.43-9.625 12.4-21.225 12.36-31.62-.04-10.755-12.5-18.43-22.26-16.965-20.59 1.395-40.725 21.815-39.31 42.85 1.03 13.975 9.51 29.805 19.98 38.91-6.675.33-15.325.015-22.155.01l-33.255.19c2.63-2.245 5.49-4.62 7.97-7.03 22.565-21.945 30.245-59.8 19.76-89.235-4.07-11.43-10.01-18.94-18.39-27.505"/><path fill="#0305ca" d="M662.085 587.17c66.68-5.875 74 120.565 3.765 124.12-73.77-.05-67.175-111.09-3.765-124.12m6.57 92.625c11.495-1.18 23.69-4.895 31.235-14.265a27.54 27.54 0 0 0 5.805-20.84c-2.52-19.44-28.405-28.835-45.5-28.985-31.095 2.59-53.095 29.37-23.45 53.995 8.615 7.15 20.82 9.94 31.91 10.095"/><path fill="#0305ca" d="M392.646 587.21q2.206-.21 4.423-.27c23.407-.43 36.156 22.2 36.494 43.285.145 9.025-2.712 15.885-12.571 16.91-8.128.84-16.181.575-24.373.54l-41.3-.225c4.357 29.12 37.803 31.95 59.363 20.495 4.218-2.245 8.346-4.785 11.33-8.62 2.191-2.815 3.137-6.925 5.48-9.515l.781.305c.981 2.335.825 4.915.907 7.51 2.524 21.065-11.32 48.17-32.913 52.525-27.185 5.49-50.786-19.005-56.214-43.465a70.41 70.41 0 0 1 9.613-54.01c9.454-14.525 22.334-21.965 38.98-25.465m-37.58 55.585 36.684-.195c5.89.025 22.163 1.29 26.33-2.615 4.58-4.295 2.518-15.49-2.581-18.91-8.637-7.04-20.837-9.06-31.598-8.865-19.981 2.825-25.733 12.095-28.835 30.585"/><path fill="#0305ca" d="M474.582 586.67c17.456-1.51 42.613 10.27 42.758 30.115.02 2.02-.305 4.03-.95 5.94-.195.565-7.18 14.765-7.345 14.93-2.01-.82-2.155-2.465-3.695-3.515-10.794-7.425-21.032-12.135-33.478-16.365-7.212-2.455-19.91-.005-18.269 9.25 1.585 8.94 24.918 13.665 32.92 16.08 23.802 7.195 43.967 23.69 27.817 50.135-6.665 10.98-14.431 15.455-26.84 18.605-20.658 1.93-60.373-24.82-47.27-49.545 9.077-17.125 65.765 25.065 65.49 4.875-.195-14.41-45.521-21.195-55.122-29.645-25.073-22.065-2.964-47.425 23.983-50.86"/><path fill="#0305ca" d="M883.145 637.585c-9.915-8.955-18.55-13.26-31.555-17.72-7.695-2.64-23.36-7.86-23.695 6.225.78 9.5 18.49 13.34 25.29 15.22 18.085 5 41.04 12.215 41.275 34.945.2 19.175-19.24 36.06-38.01 35.465-17.355-.55-46.155-22.665-44.64-41.325a13.52 13.52 0 0 1 5.21-9.595c11.485-8.71 40.02 10.75 53.215 12.405 2.75.35 5.36-.13 7.465-1.955 1.065-.93 2.295-2.68 2.12-3.98-1.925-14.385-39.165-20.385-50.62-27.08-3.86-1.905-6.89-3.97-9.865-7.215-10.64-11.625-3.805-27.97 6.47-37.14 10.215-9.125 21.05-9.63 34.145-8.83 17.565 5.19 32.34 13.435 31.38 34.235-1.675 4.805-5.63 11.61-8.185 16.345"/><path fill="#0305ca" d="m559.82 545.64 1.565.555c1.385 2.845-.21 4.92-1.13 7.82-1.87 5.91-3.26 10.91-3.935 17.035-1.53 13.855 11.055 12.57 15.02 16.81-5.95 4.255-13.505 1.565-20.36 10.735-9.98 13.34-19.24 38.31-18.14 54.995 1.875 28.415 46.615 13.915 53.57-4.495 1.305-3.385 3.435-10.15 5.63-12.87l.73-.04c1.905 4.61-1.655 20.14-2.9 25.43-2 8.475-6.705 17.555-11.18 24.955-8.215 12.9-20.4 26.245-37.43 25.14-12.255-.795-15.73-12.905-16.66-23.235-1.76-19.635 2.925-39.475 8.075-58.32 5.445-19.94 8.72-36.975-18.11-38.79-3.955-.265-8.415-.54-12.39-.96 5.015-2.145 10.025-3.345 15.25-4.675 13.835-3.52 26.47-10.385 33.67-23.18 3.09-5.485 5.475-11.27 8.725-16.91"/><path fill="#f94313" d="M859.95 587.005c1.175-4.57 2.065-8.34 4.155-12.575 12.055-24.42 46.625-26.525 59.895-1.945 4.2 7.79 5.505 16.435 2.975 25.03a32.64 32.64 0 0 1-15.965 19.63c-7.305 3.86-11.85 3.735-19.68 4.095.96-20.8-13.815-29.045-31.38-34.235"/><path fill="#0305ca" d="M583.475 591.225c11.885-.72 26.46.105 38.875-.165-26.375 35.055-27.53 89.96 8.265 119.205-3.295.28-7.14.26-10.49.32-15.795.04-33.87.47-49.55-.28 29.175-32.71 42.74-80.89 12.775-117.92q.059-.576.125-1.16"/><path fill="#f94313" d="M137.65 478.975c1.479 6.04 3.846 23.395 6.656 27.68 3.13.19 13.742-6.912 17.114-8.978-2.044 4.528-6.272 11.833-8.739 16.493 10.046 3.18 18.047 5.04 28.227 7.52-9.682 2.935-18.658 2.935-28.425 7.57 2.93 5.935 6.05 9.615 9.524 15.13l-1.293.825c-5.376-2.55-9.995-5.875-15.722-8.51-2.977 7.755-5.228 20.37-6.968 28.925-2.428-8.195-4.179-19.05-6.801-28.285-6.012 2-11.657 5.035-17.22 8.035 2.027-5.605 5.686-11.435 8.77-16.595-8.442-3.13-18.255-5.27-27.101-7.37 10.706-2.67 16.15-3.46 27.085-7.045a1057 1057 0 0 0-9.11-16.271c4.622 1.803 12.878 6.086 17.538 8.441 2.445-8.913 4.476-18.519 6.465-27.566"/><path fill="#0305ca" d="M598.95 541.59c3.46-.325 6.95.24 10.13 1.65 5.46 2.375 9.365 6.945 11.35 12.515a23.3 23.3 0 0 1-1.135 18.585c-3.235 6.43-7.84 9.745-14.51 11.84-29.02 2.69-32.49-40-5.835-44.59"/><path fill="#a2a2b1" fill-opacity=".047" d="M318.537 668.735c2.134-6.57 6.486-20.465 9.754-26.005-1.397 10.275-4.567 23.35-6.817 33.64-1.495-2.195-1.214-4.845-2.937-7.635"/><path fill="#f6f6f7" fill-opacity=".09" d="M277.299 469.714c.758 2.56.485 1.991 2.979 3.218-3.896 6.164-7.046 10.643-11.011 17.282 1.356-6.776 4.757-14.433 8.032-20.5"/><path fill="#f6f6f7" fill-opacity=".055" d="M731.5 633.45c.18 2.205.25 3.305.115 5.505l.535.875 1.505-.97c-1.64 5.98-2.83 12.06-4.56 18.015-.57-9.205.44-14.325 2.405-23.425"/></svg>